<?xml version="1.0" encoding="utf-8"?>
<!-- Generator: Adobe Illustrator 21.0.0, SVG Export Plug-In . SVG Version: 6.00 Build 0)  -->
<svg version="1.1" id="图层_1" xmlns="http://www.w3.org/2000/svg" xmlns:xlink="http://www.w3.org/1999/xlink" x="0px" y="0px"
	 viewBox="0 0 200 200" style="enable-background:new 0 0 200 200;" xml:space="preserve">
<style type="text/css">
	.st0{fill:#5FC1CA;}
</style>
<path class="st0" d="M194.5,0.5H5.5c-2.7,0-5,2.2-5,5v5c0,2.7,2.2,5,5,5h189c2.7,0,5-2.2,5-5l0-5C199.5,2.8,197.2,0.5,194.5,0.5z
	 M5.5,45.3h139.2c2.7,0,5-2.2,5-5v-5c0-2.7-2.2-5-5-5H5.5c-2.7,0-5,2.2-5,5v5C0.5,43.1,2.8,45.3,5.5,45.3z M100,65.2
	c0-2.7-2.2-5-5-5H5.5c-2.7,0-5,2.2-5,5v5c0,2.7,2.2,5,5,5H95c2.7,0,5-2.2,5-5L100,65.2L100,65.2z M80.1,90.1H55.2L0.5,159.7v14.9
	h59.7v24.9h19.9v-24.9H95v-14.9H80.1L80.1,90.1L80.1,90.1z M60.2,124.9v34.8l-34.8,0l24.9-34.8c1.9-2.9,9-12.7,9.9-14.9
	C59.9,112.5,60.2,120,60.2,124.9z M149.7,109.9c13.7,0,29.8,5.3,29.8,14.9h19.9c0-28.1-25.3-34.8-49.7-34.8
	c-32.1,1.9-48.6,18.3-50.6,52.6c1.3,35.3,21.8,55.5,55.5,56.8c25,0,37.4-9.5,44.8-24.9l0-39.8h-54.7v19.9h34.8v14.9
	c-4.8,7.4-12.7,10.3-25.2,10.1c-19.8-3-29.1-14.7-29.7-36.6C126,122,133.7,111.6,149.7,109.9z"/>
</svg>
