<?xml version="1.0" encoding="utf-8"?>
<!-- Generator: Adobe Illustrator 21.0.0, SVG Export Plug-In . SVG Version: 6.00 Build 0)  -->
<svg version="1.1" id="图层_1" xmlns="http://www.w3.org/2000/svg" xmlns:xlink="http://www.w3.org/1999/xlink" x="0px" y="0px"
	 viewBox="0 0 200 200" style="enable-background:new 0 0 200 200;" xml:space="preserve">
<style type="text/css">
	.st0{fill:#EE8389;}
</style>
<path class="st0" d="M138.8,55.8c3.4,3,8.6,2.7,11.6-0.7l16-18.2c3-3.4,2.7-8.6-0.7-11.6s-8.6-2.7-11.6,0.7l0,0l-16,18.2
	c-1.6,1.8-2.3,4.3-1.9,6.7C136.4,52.7,137.3,54.5,138.8,55.8L138.8,55.8z"/>
<path class="st0" d="M100.1,58.7L100.1,58.7h-0.7l0,0C71.5,58.7,49,81.3,49,109.1v62h64.6c2.3-19.9,17.3-35.9,37-39.3v-22.7
	C150.6,81.3,128,58.7,100.1,58.7z M136.5,114.9c-2.4,0-4.3-1.9-4.3-4.3c0-17.5-14.2-31.7-31.7-31.7h-0.7c-2.4,0-4.3-1.9-4.3-4.3
	s1.9-4.3,4.3-4.3h0.7c22.3,0,40.4,18.1,40.4,40.4C140.8,113,138.9,114.9,136.5,114.9z"/>
<path class="st0" d="M189.3,78.7l-24,3.7c-4.5,0.7-7.6,4.9-6.9,9.4c0.7,4.5,4.9,7.6,9.4,6.9l24-3.7c4.5-0.7,7.6-4.9,6.9-9.4
	C198,81.1,193.8,78,189.3,78.7L189.3,78.7z"/>
<path class="st0" d="M35.4,33.8l15.2,19c2.8,3.5,8,4.1,11.6,1.3c3.5-2.8,4.1-8,1.3-11.6l-15.3-19c-2.8-3.5-8-4.1-11.5-1.3l0,0
	C33.1,25,32.5,30.2,35.4,33.8L35.4,33.8z"/>
<path class="st0" d="M113.3,176.2H42.9l-6.4,19.5h81.3C114.8,189.6,113.3,182.9,113.3,176.2z M62.7,192H41.9l4-12.3h29L62.7,192z"/>
<path class="st0" d="M92.9,34c0.7,4.5,4.9,7.6,9.4,6.9c4-0.6,6.9-4,7-8l-0.1-24.3c0.1-4.5-3.5-8.3-8-8.4c-4.5-0.1-8.3,3.5-8.4,8
	l0.1,24.3C92.8,33,92.8,33.5,92.9,34z"/>
<path class="st0" d="M40.8,88.9c0.9-4.5-2-8.8-6.4-9.7l-23.8-4.8c-4.5-0.8-8.7,2.2-9.5,6.6c-0.8,4.3,2,8.5,6.3,9.5l23.8,4.8
	C35.6,96.2,39.9,93.4,40.8,88.9L40.8,88.9z"/>
<rect x="49" y="129.5" class="st0" width="101.6" height="41.7"/>
<path class="st0" d="M82.5,195.6h81.3l-6.4-19.5H86.9C86.9,182.9,85.4,189.6,82.5,195.6z M125.2,179.8h29l4,12.3h-20.8L125.2,179.8z
	"/>
</svg>
