<?xml version="1.0" encoding="utf-8"?>
<!-- Generator: Adobe Illustrator 23.0.6, SVG Export Plug-In . SVG Version: 6.00 Build 0)  -->
<svg version="1.1" id="Layer_1" xmlns="http://www.w3.org/2000/svg" xmlns:xlink="http://www.w3.org/1999/xlink" x="0px" y="0px"
	 viewBox="0 0 800 800" style="enable-background:new 0 0 800 800;" xml:space="preserve">
<style type="text/css">
	.st0{fill:#5FC1CA;}
</style>
<g>
	<path class="st0" d="M77.1,502.1h360.1v-93c0,0,11.8-54.6-110.7-51.7l-7.4,53.1h-45.8L266,384l-28-4.4l-2.9-11.8H219V322h-11.8
		v45.7h-25.3l-3-19.2h-17.7v16.2h-48.7l-2.9,41.3l-32.5,1.5C77.1,407.6,52,479.9,77.1,502.1z M341.3,375.1
		C453.4,363.3,418,485.8,418,485.8C311.7,469.6,341.3,375.1,341.3,375.1z"/>
	<path class="st0" d="M429.8,348.6c0,0,22.1,8.9,26.6,36.9c0,0-1.5-39.8,121-36.9c122.5,3,141.7,0,141.7,0V325c0,0,0-33.9,19.2-47.2
		H533.1C533.1,277.7,452.9,303.9,429.8,348.6z"/>
	<path class="st0" d="M738.2,412v90c0,0,41.3,14.8,54.6-28V285.1h-17.7C775.1,285.1,720.5,282.2,738.2,412z"/>
	<path class="st0" d="M646.7,468.1c0,0-42.8,104.8,35.4,112.2c78.2,7.4,116.6-75.8,116.6-75.8C707.3,577.8,646.7,468.1,646.7,468.1z
		"/>
	<path class="st0" d="M274.1,582.7c7.6,0,13.8-6.2,13.8-13.8s-6.2-13.8-13.8-13.8c-7.6,0-13.8,6.2-13.8,13.8
		C260.3,576.5,266.5,582.7,274.1,582.7z"/>
	<path class="st0" d="M181.6,581.1c6.7,0,12.1-5.4,12.1-12.1s-5.4-12.1-12.1-12.1c-6.7,0-12.1,5.4-12.1,12.1
		S174.9,581.1,181.6,581.1z"/>
	<path class="st0" d="M370.5,581.1c6.7,0,12.1-5.4,12.1-12.1s-5.4-12.1-12.1-12.1s-12.1,5.4-12.1,12.1S363.8,581.1,370.5,581.1z"/>
	<path class="st0" d="M80,581.1c6.7,0,12.1-5.4,12.1-12.1s-5.4-12.1-12.1-12.1s-12.1,5.4-12.1,12.1S73.3,581.1,80,581.1z"/>
	<path class="st0" d="M494,619.1v-3.3c23.3-2.9,41.3-22.8,41.3-46.9c0-24-18.1-43.9-41.3-46.9v-3.3H43.9v3.3
		c-23.3,3-41.3,22.9-41.3,46.9s18.1,43.9,41.3,46.9v3.3L494,619.1L494,619.1z M80,545c11.1,0,20.5,7.7,23.1,18h55.4
		c2.6-10.3,12-18,23.1-18c11.2,0,20.5,7.7,23.1,18h44.5c2.7-11.3,12.8-19.7,24.8-19.7c12.1,0,22.1,8.4,24.8,19.7h48.5
		c2.6-10.3,12-18,23.1-18s20.5,7.7,23.1,18h49.2c2.7-10.3,12-18,23.1-18c13.2,0,23.9,10.7,23.9,23.9s-10.7,23.9-23.9,23.9
		c-11.2,0-20.5-7.7-23.1-18h-49.2c-2.6,10.3-12,18-23.1,18s-20.5-7.7-23.1-18h-48.5c-2.7,11.3-12.8,19.7-24.8,19.7
		c-12.1,0-22.1-8.4-24.8-19.7h-44.5c-2.6,10.3-12,18-23.1,18c-11.2,0-20.5-7.7-23.1-18h-55.4c-2.7,10.3-12,18-23.1,18
		c-13.2,0-23.9-10.7-23.9-23.9C56,555.7,66.8,545,80,545z"/>
	<path class="st0" d="M466,581.1c6.7,0,12.1-5.4,12.1-12.1s-5.5-12.1-12.1-12.1c-6.7,0-12.1,5.4-12.1,12.1S459.3,581.1,466,581.1z"
		/>
</g>
</svg>
