<?xml version="1.0" encoding="utf-8"?>
<!-- Generator: Adobe Illustrator 21.0.0, SVG Export Plug-In . SVG Version: 6.00 Build 0)  -->
<svg version="1.1" id="图层_1" xmlns="http://www.w3.org/2000/svg" xmlns:xlink="http://www.w3.org/1999/xlink" x="0px" y="0px"
	 viewBox="0 0 200 200" style="enable-background:new 0 0 200 200;" xml:space="preserve">
<style type="text/css">
	.st0{fill:#5FC1CA;}
</style>
<path class="st0" d="M172.4,44.3h-13.6V30c0-2-2-4.1-4.1-4.1h-14.3V31l0,0v-5h-15c-2,0-4.1,2-4.1,4.1v14.3H71V30
	c0-2-1.4-4.1-4.1-4.1H52.6V31l0,0v-5H38.3c-2.7,0-4.1,2-4.1,4.1v14.3h-9.5c-2,0-4.1,2-4.1,4.1v46.9v17.3v32.1c0,2,2,4.1,4.1,4.1
	h27.9v-5.3l0,0v5.3h87.8l0,0h32c2,0,4.1-2,4.1-4.1v-32.1V95.3V48.4C176.5,46.4,174.4,44.3,172.4,44.3z M140.4,43.2L140.4,43.2V51
	l0,0V43.2z M128.8,74.3h11.6H152c2,0,3.4,1.4,3.4,2.7c0,2-1.4,3.4-3.4,3.4h-11.6h-11.6c-2,0-3.4-1.4-3.4-3.4
	C125.4,75.6,126.8,74.3,128.8,74.3z M52.6,43.2L52.6,43.2V51l0,0V43.2z M41.1,74.3h8.2v-8.8c0-1.4,1.4-3.4,3.4-3.4s3.4,2,3.4,3.4
	v8.8h8.2c2,0,3.4,1.4,3.4,2.7c0,2-1.4,3.4-3.4,3.4H56v8.8c0,1.4-1.4,3.4-3.4,3.4l0,0c-2,0-3.4-2-3.4-3.4v-8.8H41
	c-2,0-3.4-1.4-3.4-3.4C37.7,75.6,39,74.3,41.1,74.3z"/>
</svg>
