<?xml version="1.0" encoding="utf-8"?>
<!-- Generator: Adobe Illustrator 21.0.0, SVG Export Plug-In . SVG Version: 6.00 Build 0)  -->
<svg version="1.1" id="图层_1" xmlns="http://www.w3.org/2000/svg" xmlns:xlink="http://www.w3.org/1999/xlink" x="0px" y="0px"
	 viewBox="0 0 206.3 200" style="enable-background:new 0 0 206.3 200;" xml:space="preserve">
<style type="text/css">
	.st0{fill:#F8C047;}
</style>
<path class="st0" d="M182.5,30.8L155.2,3.5c-3.8-3.8-9.8-3.8-13.3,0l-39.7,39.7c-3.8,3.8-3.8,9.8,0,13.3L113,67.3l-5.4,5.4l-3.5-3.5
	C99,64.1,92.4,61.9,86,61.9c-8.6-7-19.7-7.9-26-1.6c-6.3,6.3-5.4,17.5,1.6,26c0,6.7,2.2,13,7.3,18.1l3.5,3.5l-5.4,5.4l-10.8-10.8
	c-3.8-3.8-9.8-3.8-13.3,0L3.2,142.2c-3.8,3.8-3.8,9.8,0,13.3l27.3,27.3c3.8,3.8,9.8,3.8,13.3,0l39.7-39.7c3.8-3.8,3.8-9.8,0-13.3
	l-9.2-9.2l5.4-5.4l12.1,12.1c3.2-7.3,8.3-14.6,14.6-21s13.7-11.4,21-14.6l-12.1-12.1l5.4-5.4l9.2,9.2c3.8,3.8,9.8,3.8,13.3,0
	l39.7-39.7C186.3,40.3,186.3,34.3,182.5,30.8z"/>
<path class="st0" d="M173.3,99.4c-0.6-0.6-1.6-1.3-2.2-1.6c0,0-0.3,0-0.3-0.3c-0.6-0.3-1-0.6-1.6-1h-0.3
	c-15.6-8.6-39.7-2.5-57.5,15.2c-18.1,18.1-23.8,41.9-15.2,57.5c0.3,0.6,0.6,1,1,1.6c0,0,0,0.3,0.3,0.3c0.6,1,1.3,1.6,1.6,2.2
	c6.7,4.4,21.6-1.3,37.5-14l-7.9-6.3c-9.5,7.6-17.1,11.7-19.4,9.8c-2.9-2.9,6.7-17.1,21.3-31.7s28.9-24.1,31.7-21.3
	c1.9,1.9-1.6,8.6-8.3,17.1l6.3,7.9C172.4,119.7,177.8,105.7,173.3,99.4L173.3,99.4z"/>
<path class="st0" d="M135.2,141.9c-2.5-1.9-2.5-5.4-0.3-7.6l1-1c2.2-2.2,5.7-1.9,7.6,0.3l8.6,10.5c1.9,2.5,1.9,6.3-0.3,8.6l2.9-2.9
	c-2.2,2.2-6,2.5-8.6,0.3L135.2,141.9L135.2,141.9z"/>
<path class="st0" d="M155.8,146.2c-4,0-7.4,3.4-7.6,7.2c0,4,3.1,7.2,7.6,7.2c4,0,7.6-3.1,7.6-7.2
	C163.2,149.1,159.8,146.2,155.8,146.2"/>
<path class="st0" d="M174.6,146.2c0,6.7-2.7,13-7.9,17.7c-4.9,4.9-11.4,7.4-18.6,7.4v10.3c20.7,0,37-15.9,37.3-35.5H174.6"/>
<path class="st0" d="M193.7,146c0,23.8-20.4,43.3-45.6,43.3v10.3c31,0,56.3-24,56.3-53.7L193.7,146"/>
</svg>
