<?xml version="1.0" encoding="utf-8"?>
<!-- Generator: Adobe Illustrator 21.0.0, SVG Export Plug-In . SVG Version: 6.00 Build 0)  -->
<svg version="1.1" id="图层_1" xmlns="http://www.w3.org/2000/svg" xmlns:xlink="http://www.w3.org/1999/xlink" x="0px" y="0px"
	 viewBox="0 0 200 200" style="enable-background:new 0 0 200 200;" xml:space="preserve">
<style type="text/css">
	.st0{fill:#EE8389;stroke:#FFFFFF;stroke-miterlimit:10;}
	.st1{fill:#FFFFFF;stroke:#EE8389;stroke-miterlimit:10;}
</style>
<path class="st0" d="M84.6,102c1.4-1.5,2.7-2.9,4-4.2c0.3-0.3,0.1-0.4,0-0.7c-1.2-1.8-1.8-3.7-1.7-5.8c0.2-4.7,3.3-8.5,7.9-9.7
	c5.7-1.4,11.4,2,12.8,7.7c1.4,5.8-2.8,11.8-8.8,12.4c-2.3,0.3-4.4-0.1-6.5-1.2c-0.2-0.1-0.5-0.1-0.7,0c-1.4,1.4-2.7,2.8-4.1,4.3
	c10.7,10.4,21.5,20.9,32.4,31.5c-0.5,0.6-0.9,1.1-1.4,1.6c-6.5,6.9-14.4,11.3-23.6,13.4c-4.6,1.1-9.3,1.4-14,1.1
	c-20.9-1.5-37.6-16.1-42-34.9C35,100.6,39.5,86,51.7,73.7c0.6-0.6,1.3-1.1,2-1.7C64,82,74.2,91.9,84.6,102z"/>
<path class="st0" d="M48.4,140c5.2,5.9,11.8,9.6,18.8,12.6c0.4,0.2,0.6,0.5,0.8,0.9c2,4.6,4,9.1,6.1,13.6c1.3,2.9,2.7,5.8,4,8.7
	c0.1,0.2,0.2,0.4,0.3,0.7c-15.2,0-30.4,0-45.7,0C37.9,164.3,43.2,152.2,48.4,140z"/>
<path class="st1" d="M94.4,32.4c-0.3-2.9-0.6-5.8-0.9-8.9c17.4,1.2,32.9,6.9,46.2,18.1c16.9,14.1,26,32.3,27.7,54.4
	c-0.7-0.1-1.2-0.1-1.8-0.2c-2.4-0.2-4.7-0.5-7.1-0.7c-0.4,0-0.4-0.3-0.4-0.6c-0.1-3.2-0.6-6.4-1.2-9.6c-2.8-13.7-9.3-25.4-19.5-34.9
	c-9.3-8.6-20.2-13.9-32.6-16.3c-3.3-0.6-6.6-0.8-9.9-1.3C94.7,32.4,94.6,32.4,94.4,32.4z"/>
<path class="st1" d="M92.8,44.4c28.9,0.1,53.5,24.4,53.1,52.5c-0.8-0.1-1.5-0.2-2.3-0.3c-2-0.3-4-0.6-6-0.8
	c-0.5-0.1-0.4-0.4-0.4-0.7c0-3.7-0.4-7.4-1.5-11c-4.4-14.8-14-24.4-28.7-29.1c-3.9-1.3-7.9-1.8-12-1.8c-0.5,0-0.6-0.1-0.7-0.6
	c-0.4-2.6-0.9-5.1-1.4-7.6C92.8,44.7,92.8,44.6,92.8,44.4z"/>
<path class="st1" d="M92.7,65.5c17.4-1.5,33.1,13.4,31.8,30.9c-2.5-0.7-5-1.4-7.4-2.1c-0.5-0.1-0.3-0.5-0.2-0.8
	c0.2-2.1-0.1-4.1-0.8-6c-1.1-2.9-3-5.2-5-7.4c-3-3.2-6.8-5.2-11.1-5.8c-1.2-0.2-2.4-0.1-3.6-0.2c-0.2,0-0.5-0.2-0.6-0.4
	C94.6,71,93.7,68.3,92.7,65.5z"/>
</svg>
