<?xml version="1.0" encoding="utf-8"?>
<!-- Generator: Adobe Illustrator 21.0.0, SVG Export Plug-In . SVG Version: 6.00 Build 0)  -->
<svg version="1.1" id="图层_1" xmlns="http://www.w3.org/2000/svg" xmlns:xlink="http://www.w3.org/1999/xlink" x="0px" y="0px"
	 viewBox="0 0 200 200" style="enable-background:new 0 0 200 200;" xml:space="preserve">
<style type="text/css">
	.st0{fill:#5FC1CA;}
</style>
<path class="st0" d="M98.2,14.7c-48,0-86.7,38.7-86.7,86.7S50.7,188,98.2,188c48,0,86.7-38.7,86.7-86.7S145.8,14.7,98.2,14.7z
	 M154.7,127.6c-1.3,2.7-3.6,4-6.2,4c-0.9,0-1.8,0-2.7-0.4L94.7,108c-2.2-0.9-4-3.6-4-6.2v-48c0-3.6,3.1-6.7,6.7-6.7s6.7,3.1,6.7,6.7
	v44l47.1,21.3C154.7,120.4,156,124,154.7,127.6L154.7,127.6z"/>
</svg>
