<?xml version="1.0" encoding="utf-8"?>
<!-- Generator: Adobe Illustrator 21.0.0, SVG Export Plug-In . SVG Version: 6.00 Build 0)  -->
<svg version="1.1" id="图层_1" xmlns="http://www.w3.org/2000/svg" xmlns:xlink="http://www.w3.org/1999/xlink" x="0px" y="0px"
	 viewBox="0 0 208.4 200" style="enable-background:new 0 0 208.4 200;" xml:space="preserve">
<style type="text/css">
	.st0{fill:#5FC1CA;}
</style>
<path class="st0" d="M22.8,86h110.2c5.9,0,10.5,4.8,10.5,10.9v79.8c0,6-4.7,10.9-10.5,10.9H22.8c-5.9,0-10.5-4.8-10.5-10.9V96.8
	C12.2,90.8,16.9,86,22.8,86z M72,139.1v16.9c0,1.2,1.2,1.2,1.2,1.2h9.4c1.2,0,1.2-1.2,1.2-1.2v-16.9c4.7-2.4,7-7.2,7-12.1
	c0-7.3-5.9-13.3-12.9-13.3s-12.9,6-12.9,13.3C65,133.1,67.3,136.7,72,139.1L72,139.1z"/>
<path class="st0" d="M175.9,58c0-14.5-12.1-27.8-27.8-27.8c-14.5,0-27.8,12.1-27.8,27.8v29h-15.7V56.8c0-24.2,19.3-44.7,44.7-44.7
	c24.2,0,44.7,19.3,44.7,44.7v29h-16.9L175.9,58L175.9,58z"/>
</svg>
